<svg width="558" height="1492" viewBox="0 0 558 1492" fill="none" xmlns="http://www.w3.org/2000/svg">
<path d="M1092.08 745.858C1092.08 928.035 1053.23 1092.96 990.42 1212.34C927.609 1331.72 840.859 1405.51 745.071 1405.51C649.283 1405.51 562.533 1331.72 499.723 1212.34C436.915 1092.96 398.064 928.035 398.064 745.858C398.064 563.681 436.915 398.757 499.723 279.381C562.533 160 649.283 86.2031 745.071 86.2031C840.859 86.2031 927.609 160 990.42 279.381C1053.23 398.757 1092.08 563.681 1092.08 745.858Z" stroke="url(#paint0_linear_788_6830)" stroke-width="0.25"/>
<path d="M745.939 1092.22C563.762 1092.22 398.837 1053.37 279.462 990.56C160.081 927.75 86.2835 841 86.2835 745.212C86.2835 649.424 160.081 562.674 279.462 499.863C398.837 437.056 563.762 398.205 745.939 398.205C928.116 398.205 1093.04 437.056 1212.42 499.863C1331.8 562.674 1405.59 649.424 1405.59 745.212C1405.59 841 1331.8 927.75 1212.42 990.56C1093.04 1053.37 928.116 1092.22 745.939 1092.22Z" stroke="url(#paint1_linear_788_6830)" stroke-width="0.25"/>
<path d="M990.693 501.1C1119.51 629.918 1208.66 774.009 1248.66 902.832C1288.66 1031.66 1279.5 1145.18 1211.77 1212.92C1144.04 1280.65 1030.51 1289.81 901.684 1249.81C772.861 1209.81 628.77 1120.66 499.952 991.841C371.133 863.022 281.986 718.932 241.986 590.109C201.984 461.28 211.143 347.756 278.876 280.024C346.608 212.291 460.132 203.132 588.961 243.134C717.784 283.134 861.874 372.281 990.693 501.1Z" stroke="url(#paint2_linear_788_6830)" stroke-width="0.25"/>
<path d="M990.855 990.771C862.037 1119.59 717.946 1208.74 589.123 1248.74C460.295 1288.74 346.771 1279.58 279.038 1211.85C211.306 1144.11 202.147 1030.59 242.148 901.762C282.148 772.939 371.295 628.848 500.114 500.03C628.933 371.211 773.023 282.064 901.846 242.064C1030.67 202.062 1144.2 211.221 1211.93 278.954C1279.66 346.686 1288.82 460.21 1248.82 589.039C1208.82 717.862 1119.67 861.952 990.855 990.771Z" stroke="url(#paint3_linear_788_6830)" stroke-width="0.25"/>
<path d="M878.429 426.222C1046.74 495.938 1184.24 594.945 1270.49 698.655C1356.75 802.369 1391.73 910.757 1355.08 999.253C1318.42 1087.75 1217.04 1139.66 1082.71 1152C948.389 1164.34 781.151 1137.12 612.842 1067.41C444.532 997.69 307.029 898.683 220.776 794.974C134.519 691.259 99.5368 582.872 136.193 494.375C172.85 405.878 274.227 353.973 408.558 341.629C542.881 329.285 710.119 356.506 878.429 426.222Z" stroke="url(#paint4_linear_788_6830)" stroke-width="0.25"/>
<path d="M1065.97 878.56C996.249 1046.87 897.242 1184.37 793.533 1270.63C689.818 1356.88 581.431 1391.86 492.934 1355.21C404.437 1318.55 352.532 1217.17 340.188 1082.84C327.845 948.52 355.065 781.282 424.781 612.972C494.497 444.663 593.504 307.16 697.214 220.907C800.928 134.65 909.316 99.6676 997.812 136.324C1086.31 172.981 1138.21 274.358 1150.56 408.688C1162.9 543.012 1135.68 710.25 1065.97 878.56Z" stroke="url(#paint5_linear_788_6830)" stroke-width="0.25"/>
<path d="M613.176 425.975C781.486 356.258 948.723 329.038 1083.05 341.382C1217.38 353.725 1318.76 405.631 1355.41 494.128C1392.07 582.625 1357.09 691.012 1270.83 794.727C1184.58 898.436 1047.07 997.443 878.763 1067.16C710.454 1136.88 543.216 1164.1 408.892 1151.75C274.562 1139.41 173.184 1087.5 136.528 999.006C99.8713 910.509 134.853 802.122 221.111 698.407C307.364 594.698 444.866 495.691 613.176 425.975Z" stroke="url(#paint6_linear_788_6830)" stroke-width="0.25"/>
<path d="M1065.63 613.219C1135.35 781.529 1162.57 948.766 1150.23 1083.09C1137.88 1217.42 1085.98 1318.8 997.479 1355.45C908.983 1392.11 800.595 1357.13 696.881 1270.87C593.172 1184.62 494.164 1047.12 424.448 878.806C354.732 710.497 327.512 543.259 339.855 408.935C352.199 274.605 404.105 173.227 492.601 136.571C581.098 99.9143 689.486 134.896 793.2 221.154C896.909 307.407 995.917 444.909 1065.63 613.219Z" stroke="url(#paint7_linear_788_6830)" stroke-width="0.25"/>
<path d="M1091.75 730.753C1099.69 912.757 1068.07 1079.22 1010.53 1201.22C952.988 1323.23 869.54 1400.74 773.843 1404.92C678.145 1409.09 588.259 1339.15 520.301 1222.62C452.347 1106.1 406.339 943.029 398.392 761.026C390.446 579.022 422.066 412.56 479.606 290.559C537.15 168.551 620.598 91.0403 716.295 86.8621C811.992 82.6839 901.879 152.627 969.836 269.155C1037.79 385.677 1083.8 548.749 1091.75 730.753Z" stroke="url(#paint8_linear_788_6830)" stroke-width="0.25"/>
<path d="M761.044 1091.88C579.04 1099.83 412.578 1068.21 290.577 1010.67C168.569 953.125 91.0584 869.676 86.8802 773.979C82.702 678.282 152.645 588.396 269.173 520.438C385.695 452.483 548.768 406.476 730.771 398.529C912.775 390.583 1079.24 422.203 1201.24 479.743C1323.25 537.286 1400.76 620.735 1404.93 716.432C1409.11 812.129 1339.17 902.015 1222.64 969.973C1106.12 1037.93 943.047 1083.94 761.044 1091.88Z" stroke="url(#paint9_linear_788_6830)" stroke-width="0.25"/>
<path d="M979.785 490.65C1114.1 613.727 1209.45 753.792 1255.03 880.748C1300.61 1007.71 1296.41 1121.52 1231.7 1192.15C1166.99 1262.77 1053.97 1276.87 923.518 1242.53C793.073 1208.18 645.231 1125.41 510.916 1002.33C376.601 879.253 281.253 739.188 235.672 612.233C190.089 485.272 194.288 371.456 259.002 300.834C323.715 230.211 436.732 216.109 567.183 250.453C697.627 284.796 845.47 367.573 979.785 490.65Z" stroke="url(#paint10_linear_788_6830)" stroke-width="0.25"/>
<path d="M1001.3 979.847C878.224 1114.16 738.159 1209.51 611.204 1255.09C484.242 1300.67 370.427 1296.48 299.804 1231.76C229.182 1167.05 215.08 1054.03 249.424 923.58C283.766 793.136 366.544 645.294 489.621 510.978C612.698 376.663 752.763 281.316 879.718 235.735C1006.68 190.152 1120.49 194.35 1191.12 259.064C1261.74 323.778 1275.84 436.794 1241.5 567.245C1207.16 697.69 1124.38 845.532 1001.3 979.847Z" stroke="url(#paint11_linear_788_6830)" stroke-width="0.25"/>
<path d="M864.359 420.741C1035.55 483.049 1177.24 575.964 1267.93 675.813C1358.63 775.666 1398.31 882.424 1365.55 972.436C1332.79 1062.45 1233.77 1118.73 1100.11 1136.92C966.449 1155.11 798.183 1135.21 626.992 1072.9C455.802 1010.59 314.111 917.676 223.417 817.828C132.717 717.975 93.041 611.217 125.802 521.205C158.564 431.194 257.581 374.915 391.245 356.724C524.902 338.533 693.168 358.433 864.359 420.741Z" stroke="url(#paint12_linear_788_6830)" stroke-width="0.25"/>
<path d="M1071.45 864.468C1009.14 1035.66 916.225 1177.35 816.377 1268.04C716.524 1358.74 609.765 1398.42 519.754 1365.66C429.742 1332.9 373.464 1233.88 355.272 1100.22C337.082 966.558 356.981 798.292 419.289 627.102C481.598 455.911 574.513 314.221 674.361 223.526C774.214 132.827 880.973 93.1503 970.984 125.912C1061 158.673 1117.27 257.69 1135.47 391.354C1153.66 525.012 1133.76 693.278 1071.45 864.468Z" stroke="url(#paint13_linear_788_6830)" stroke-width="0.25"/>
<path d="M599.347 432.064C764.455 355.072 930.346 320.583 1065.08 327.056C1199.82 333.529 1303.37 380.963 1343.85 467.776C1384.33 554.59 1354.11 664.4 1272.46 771.778C1190.81 879.151 1057.76 984.062 892.649 1061.05C727.541 1138.04 561.65 1172.53 426.915 1166.06C292.174 1159.59 188.629 1112.15 148.147 1025.34C107.666 938.527 137.886 828.717 219.538 721.339C301.185 613.966 434.238 509.055 599.347 432.064Z" stroke="url(#paint14_linear_788_6830)" stroke-width="0.25"/>
<path d="M1059.54 599.395C1136.53 764.504 1171.02 930.395 1164.55 1065.13C1158.07 1199.87 1110.64 1303.42 1023.83 1343.9C937.011 1384.38 827.201 1354.16 719.823 1272.51C612.45 1190.86 507.539 1057.81 430.548 892.698C353.557 727.59 319.067 561.698 325.54 426.964C332.013 292.223 379.447 188.678 466.261 148.196C553.074 107.714 662.884 137.935 770.262 219.586C877.635 301.234 982.546 434.287 1059.54 599.395Z" stroke="url(#paint15_linear_788_6830)" stroke-width="0.25"/>
<path d="M1090.76 715.678C1106.63 897.161 1082.31 1064.84 1030.14 1189.24C977.975 1313.64 897.987 1394.72 802.563 1403.07C707.139 1411.41 614.288 1345.46 541.311 1232.01C468.339 1118.56 415.262 957.649 399.384 776.165C383.506 594.681 407.835 426.998 459.999 302.603C512.166 178.202 592.154 97.1247 687.578 88.7763C783.001 80.4278 875.853 146.383 948.829 259.836C1021.8 373.283 1074.88 534.194 1090.76 715.678Z" stroke="url(#paint16_linear_788_6830)" stroke-width="0.25"/>
<path d="M776.121 1090.89C594.637 1106.77 426.955 1082.44 302.559 1030.27C178.158 978.106 97.0812 898.118 88.7327 802.694C80.3842 707.27 146.34 614.418 259.792 541.442C373.24 468.47 534.15 415.393 715.634 399.515C897.118 383.637 1064.8 407.966 1189.2 460.13C1313.6 512.297 1394.67 592.285 1403.02 687.708C1411.37 783.132 1345.42 875.984 1231.96 948.96C1118.52 1021.93 957.605 1075.01 776.121 1090.89Z" stroke="url(#paint17_linear_788_6830)" stroke-width="0.25"/>
<path d="M968.429 480.688C1107.98 597.789 1209.35 733.562 1260.43 858.408C1311.5 983.26 1312.27 1097.15 1250.7 1170.53C1189.13 1243.91 1076.84 1262.92 945.012 1234.3C813.193 1205.68 661.881 1129.43 522.325 1012.33C382.77 895.232 281.403 759.459 230.328 634.613C179.25 509.76 178.48 395.87 240.052 322.492C301.623 249.114 413.917 230.096 545.742 258.717C677.561 287.337 828.873 363.587 968.429 480.688Z" stroke="url(#paint18_linear_788_6830)" stroke-width="0.25"/>
<path d="M1011.27 968.481C894.166 1108.04 758.393 1209.4 633.547 1260.48C508.695 1311.56 394.805 1312.33 321.427 1250.75C248.049 1189.18 229.03 1076.89 257.651 945.065C286.271 813.246 362.521 661.934 479.622 522.378C596.723 382.822 732.496 281.456 857.342 230.381C982.195 179.303 1096.08 178.533 1169.46 240.105C1242.84 301.676 1261.86 413.97 1233.24 545.795C1204.62 677.613 1128.37 828.926 1011.27 968.481Z" stroke="url(#paint19_linear_788_6830)" stroke-width="0.25"/>
<path d="M850.065 415.878C1023.81 470.66 1169.42 557.307 1264.38 653.104C1359.35 748.906 1403.65 853.832 1374.84 945.187C1346.04 1036.54 1249.57 1097.09 1116.83 1121.09C984.09 1145.09 815.116 1132.55 641.371 1077.77C467.625 1022.99 322.017 936.343 227.053 840.545C132.085 744.743 87.7895 639.817 116.594 548.462C145.398 457.108 241.865 396.564 374.609 372.559C507.346 348.556 676.319 361.097 850.065 415.878Z" stroke="url(#paint20_linear_788_6830)" stroke-width="0.25"/>
<path d="M1076.31 850.153C1021.53 1023.9 934.881 1169.51 839.084 1264.47C743.282 1359.44 638.356 1403.73 547.001 1374.93C455.646 1346.13 395.102 1249.66 371.098 1116.91C347.094 984.178 359.635 815.204 414.417 641.459C469.199 467.713 555.845 322.105 651.642 227.141C747.444 132.173 852.37 87.8774 943.725 116.681C1035.08 145.486 1095.62 241.953 1119.63 374.697C1143.63 507.433 1131.09 676.407 1076.31 850.153Z" stroke="url(#paint21_linear_788_6830)" stroke-width="0.25"/>
<path d="M585.795 438.753C747.388 354.632 911.617 312.94 1046.51 313.529C1181.4 314.119 1286.92 356.991 1331.15 441.956C1375.38 526.922 1349.97 637.945 1273.08 748.783C1196.2 859.615 1067.85 970.23 906.254 1054.35C744.661 1138.47 580.432 1180.16 445.544 1179.57C310.649 1178.98 205.133 1136.11 160.903 1051.15C116.673 966.181 142.075 855.157 218.965 744.319C295.851 633.487 424.202 522.873 585.795 438.753Z" stroke="url(#paint22_linear_788_6830)" stroke-width="0.25"/>
<path d="M1052.85 585.849C1136.97 747.442 1178.66 911.671 1178.07 1046.56C1177.48 1181.45 1134.61 1286.97 1049.65 1331.2C964.682 1375.43 853.658 1350.03 742.82 1273.14C631.988 1196.25 521.374 1067.9 437.254 906.309C353.134 744.716 311.441 580.487 312.031 445.599C312.62 310.704 355.492 205.188 440.457 160.958C525.423 116.728 636.447 142.13 747.284 219.02C858.116 295.906 968.731 424.256 1052.85 585.849Z" stroke="url(#paint23_linear_788_6830)" stroke-width="0.25"/>
<path d="M1089.11 700.657C1112.89 881.276 1095.89 1049.86 1049.21 1176.41C1002.52 1302.97 926.141 1387.46 831.172 1399.96C736.203 1412.47 640.563 1350.62 562.707 1240.46C484.856 1130.31 424.81 971.863 401.032 791.244C377.253 610.626 394.244 442.041 440.933 315.489C487.623 188.931 563.999 104.442 658.967 91.9392C753.936 79.4363 849.576 141.279 927.432 251.44C1005.28 361.597 1065.33 520.039 1089.11 700.657Z" stroke="url(#paint24_linear_788_6830)" stroke-width="0.25"/>
<path d="M791.143 1089.24C610.525 1113.02 441.94 1096.03 315.388 1049.34C188.83 1002.65 104.341 926.273 91.8383 831.305C79.3354 736.336 141.178 640.696 251.34 562.84C361.496 484.989 519.938 424.943 700.556 401.164C881.175 377.386 1049.76 394.377 1176.31 441.065C1302.87 487.756 1387.36 564.131 1399.86 659.1C1412.36 754.069 1350.52 849.709 1240.36 927.564C1130.2 1005.42 971.762 1065.46 791.143 1089.24Z" stroke="url(#paint25_linear_788_6830)" stroke-width="0.25"/>
<path d="M956.65 471.229C1101.18 582.131 1208.37 713.353 1264.85 835.853C1321.32 958.358 1327.06 1072.11 1268.75 1148.1C1210.43 1224.09 1099.08 1247.99 966.128 1225.15C833.186 1202.31 678.692 1132.73 534.161 1021.83C389.631 910.924 282.438 779.702 225.966 657.203C169.491 534.698 163.754 420.949 222.066 344.955C280.378 268.961 391.735 245.063 524.683 267.907C657.625 290.75 812.119 360.327 956.65 471.229Z" stroke="url(#paint26_linear_788_6830)" stroke-width="0.25"/>
<path d="M1020.72 956.691C909.82 1101.22 778.598 1208.41 656.098 1264.89C533.593 1321.36 419.845 1327.1 343.851 1268.79C267.857 1210.47 243.958 1099.12 266.802 966.169C289.645 833.227 359.222 678.733 470.124 534.202C581.027 389.671 712.249 282.479 834.748 226.007C957.254 169.532 1071 163.795 1147 222.107C1222.99 280.419 1246.89 391.776 1224.04 524.724C1201.2 657.666 1131.62 812.16 1020.72 956.691Z" stroke="url(#paint27_linear_788_6830)" stroke-width="0.25"/>
<path d="M835.57 411.647C1011.54 458.798 1160.79 539.01 1259.84 630.574C1358.9 722.142 1407.73 825.036 1382.94 917.561C1358.14 1010.08 1264.41 1074.78 1132.84 1104.55C1001.28 1134.32 831.916 1129.16 655.946 1082.01C479.977 1034.86 330.727 954.649 231.675 863.085C132.618 771.517 83.7884 668.622 108.58 576.098C133.372 483.574 227.107 418.88 358.677 389.108C490.241 359.337 659.601 364.496 835.57 411.647Z" stroke="url(#paint28_linear_788_6830)" stroke-width="0.25"/>
<path d="M1080.54 835.633C1033.39 1011.6 953.179 1160.85 861.615 1259.9C770.047 1358.96 667.153 1407.79 574.629 1383C482.104 1358.21 417.411 1264.47 387.639 1132.9C357.868 1001.34 363.027 831.978 410.177 656.009C457.328 480.039 537.541 330.79 629.105 231.738C720.673 132.681 823.567 83.8509 916.091 108.643C1008.62 133.435 1073.31 227.17 1103.08 358.74C1132.85 490.303 1127.69 659.663 1080.54 835.633Z" stroke="url(#paint29_linear_788_6830)" stroke-width="0.25"/>
<path d="M572.55 446.023C730.32 354.935 892.574 306.118 1027.36 300.823C1162.15 295.528 1269.44 333.757 1317.33 416.712C1365.23 499.667 1344.69 611.694 1272.71 725.779C1200.73 839.86 1077.33 955.968 919.556 1047.06C761.786 1138.14 599.532 1186.96 464.746 1192.26C329.954 1197.55 222.669 1159.32 174.775 1076.37C126.881 993.412 147.416 881.386 219.398 767.3C291.376 653.22 414.78 537.112 572.55 446.023Z" stroke="url(#paint30_linear_788_6830)" stroke-width="0.25"/>
<path d="M1045.58 572.606C1136.66 730.376 1185.48 892.63 1190.78 1027.42C1196.07 1162.21 1157.84 1269.49 1074.89 1317.39C991.932 1365.28 879.906 1344.75 765.82 1272.76C651.74 1200.79 535.632 1077.38 444.543 919.613C353.455 761.843 304.638 599.589 299.343 464.803C294.048 330.011 332.277 222.726 415.232 174.831C498.187 126.937 610.214 147.473 724.299 219.455C838.38 291.433 954.488 414.836 1045.58 572.606Z" stroke="url(#paint31_linear_788_6830)" stroke-width="0.25"/>
<path d="M1086.81 685.729C1118.45 865.138 1108.82 1034.3 1067.7 1162.77C1026.57 1291.25 953.957 1378.99 859.624 1395.62C765.291 1412.25 667.044 1354.64 584.458 1247.98C501.875 1141.32 434.976 985.652 403.341 806.243C371.706 626.833 381.328 457.668 422.452 329.2C463.578 200.726 536.195 112.986 630.528 96.3521C724.861 79.7187 823.108 137.331 905.694 243.991C988.277 350.647 1055.18 506.319 1086.81 685.729Z" stroke="url(#paint32_linear_788_6830)" stroke-width="0.25"/>
<path d="M806.076 1086.93C626.667 1118.57 457.502 1108.95 329.033 1067.82C200.559 1026.7 112.819 954.08 96.1856 859.747C79.5521 765.414 137.164 667.167 243.825 584.581C350.48 501.998 506.153 435.099 685.562 403.464C864.971 371.829 1034.14 381.451 1162.6 422.575C1291.08 463.701 1378.82 536.318 1395.45 630.651C1412.09 724.984 1354.47 823.231 1247.81 905.817C1141.16 988.4 985.486 1055.3 806.076 1086.93Z" stroke="url(#paint33_linear_788_6830)" stroke-width="0.25"/>
<path d="M944.465 462.296C1093.7 566.789 1206.51 693.21 1268.27 813.13C1330.04 933.055 1340.73 1046.45 1285.79 1124.91C1230.85 1203.38 1120.64 1232.11 986.819 1215.09C853.008 1198.06 695.626 1135.29 546.395 1030.8C397.164 926.306 284.35 799.885 222.589 679.965C160.824 560.04 150.13 446.65 205.072 368.185C260.014 289.72 370.223 260.987 504.041 278.01C637.852 295.032 795.234 357.804 944.465 462.296Z" stroke="url(#paint34_linear_788_6830)" stroke-width="0.25"/>
<path d="M1029.65 944.496C925.162 1093.73 798.741 1206.54 678.821 1268.3C558.896 1330.07 445.506 1340.76 367.041 1285.82C288.576 1230.88 259.843 1120.67 276.866 986.851C293.888 853.039 356.66 695.657 461.152 546.426C565.645 397.196 692.066 284.382 811.986 222.62C931.911 160.855 1045.3 150.162 1123.77 205.103C1202.23 260.045 1230.96 370.254 1213.94 504.072C1196.92 637.883 1134.15 795.265 1029.65 944.496Z" stroke="url(#paint35_linear_788_6830)" stroke-width="0.25"/>
<path d="M820.907 408.048C998.766 447.478 1151.37 521.104 1254.32 608.26C1357.28 695.42 1410.55 796.087 1389.82 889.604C1369.09 983.122 1278.26 1051.84 1148.12 1087.33C1017.98 1122.81 848.554 1125.04 670.695 1085.61C492.836 1046.18 340.23 972.554 237.279 885.398C134.322 798.237 81.0501 697.571 101.782 604.053C122.515 510.536 213.339 441.815 343.485 406.332C473.625 370.851 643.048 368.617 820.907 408.048Z" stroke="url(#paint36_linear_788_6830)" stroke-width="0.25"/>
<path d="M1084.14 820.948C1044.71 998.807 971.085 1151.41 883.929 1254.36C796.769 1357.32 696.103 1410.59 602.585 1389.86C509.067 1369.13 440.346 1278.3 404.864 1148.16C369.383 1018.02 367.149 848.595 406.579 670.736C446.01 492.877 519.636 340.271 606.792 237.32C693.952 134.363 794.618 81.0911 888.136 101.823C981.654 122.556 1050.37 213.38 1085.86 343.526C1121.34 473.666 1123.57 643.089 1084.14 820.948Z" stroke="url(#paint37_linear_788_6830)" stroke-width="0.25"/>
<path d="M559.633 453.869C713.28 355.985 873.25 300.138 1007.68 288.969C1142.11 277.799 1250.96 311.312 1302.43 392.099C1353.89 472.886 1338.27 585.701 1271.33 702.818C1204.39 819.93 1086.17 941.31 932.526 1039.19C778.88 1137.08 618.91 1192.92 484.483 1204.09C350.05 1215.26 241.199 1181.75 189.732 1100.96C138.265 1020.18 153.895 907.361 220.832 790.244C287.766 673.133 405.987 551.753 559.633 453.869Z" stroke="url(#paint38_linear_788_6830)" stroke-width="0.25"/>
<path d="M1037.73 559.696C1135.62 713.342 1191.47 873.313 1202.63 1007.74C1213.8 1142.17 1180.29 1251.02 1099.5 1302.49C1018.72 1353.96 905.902 1338.33 788.785 1271.39C671.674 1204.46 550.293 1086.24 452.41 932.589C354.526 778.942 298.679 618.972 287.51 484.545C276.34 350.112 309.853 241.262 390.64 189.795C471.427 138.328 584.242 153.957 701.359 220.894C818.471 287.828 939.851 406.049 1037.73 559.696Z" stroke="url(#paint39_linear_788_6830)" stroke-width="0.25"/>
<path d="M1083.86 670.911C1123.29 848.77 1121.06 1018.19 1085.58 1148.33C1050.1 1278.48 981.374 1369.3 887.856 1390.04C794.339 1410.77 693.672 1357.5 606.512 1254.54C519.356 1151.59 445.73 998.982 406.3 821.123C366.869 643.265 369.103 473.841 404.584 343.701C440.067 213.555 508.788 122.731 602.305 101.999C695.823 81.2664 796.489 134.538 883.65 237.495C970.806 340.447 1044.43 493.053 1083.86 670.911Z" stroke="url(#paint40_linear_788_6830)" stroke-width="0.25"/>
<path d="M820.895 1083.98C643.036 1123.41 473.613 1121.18 343.473 1085.69C213.327 1050.21 122.503 981.491 101.771 887.974C81.0381 794.456 134.31 693.79 237.267 606.629C340.218 519.473 492.824 445.847 670.683 406.417C848.542 366.986 1017.97 369.22 1148.11 404.701C1278.25 440.184 1369.08 508.905 1389.81 602.423C1410.54 695.94 1357.27 796.606 1254.31 883.767C1151.36 970.923 998.754 1044.55 820.895 1083.98Z" stroke="url(#paint41_linear_788_6830)" stroke-width="0.25"/>
<path d="M931.909 453.899C1085.56 551.783 1203.78 673.163 1270.71 790.275C1337.65 907.392 1353.28 1020.21 1301.81 1100.99C1250.34 1181.78 1141.49 1215.29 1007.06 1204.12C872.633 1192.96 712.663 1137.11 559.016 1039.22C405.37 941.341 287.148 819.96 220.215 702.849C153.277 585.732 137.648 472.916 189.115 392.129C240.582 311.342 349.433 277.829 483.866 288.999C618.292 300.168 778.263 356.016 931.909 453.899Z" stroke="url(#paint42_linear_788_6830)" stroke-width="0.25"/>
<path d="M1038.05 931.927C940.162 1085.57 818.782 1203.79 701.671 1270.73C584.553 1337.67 471.738 1353.29 390.951 1301.83C310.164 1250.36 276.651 1141.51 287.821 1007.08C298.99 872.651 354.837 712.68 452.721 559.034C550.605 405.387 671.985 287.166 789.096 220.232C906.214 153.295 1019.03 137.666 1099.82 189.133C1180.6 240.6 1214.12 349.45 1202.95 483.883C1191.78 618.31 1135.93 778.28 1038.05 931.927Z" stroke="url(#paint43_linear_788_6830)" stroke-width="0.25"/>
<path d="M806.101 405.094C985.511 436.729 1141.18 503.628 1247.84 586.21C1354.5 668.797 1412.11 767.044 1395.48 861.377C1378.84 955.71 1291.1 1028.33 1162.63 1069.45C1034.16 1110.58 864.996 1120.2 685.587 1088.56C506.177 1056.93 350.505 990.03 243.85 907.447C137.189 824.861 79.577 726.614 96.2105 632.281C112.844 537.948 200.584 465.331 329.058 424.205C457.527 383.081 626.692 373.459 806.101 405.094Z" stroke="url(#paint44_linear_788_6830)" stroke-width="0.25"/>
<path d="M1087.09 806.119C1055.45 985.528 988.555 1141.2 905.973 1247.86C823.387 1354.52 725.14 1412.13 630.807 1395.49C536.474 1378.86 463.857 1291.12 422.731 1162.65C381.607 1034.18 371.985 865.014 403.62 685.604C435.255 506.195 502.154 350.523 584.736 243.867C667.323 137.207 765.57 79.5946 859.903 96.2281C954.236 112.862 1026.85 200.601 1067.98 329.076C1109.1 457.544 1118.72 626.709 1087.09 806.119Z" stroke="url(#paint45_linear_788_6830)" stroke-width="0.25"/>
<path d="M547.075 462.267C696.305 357.775 853.687 295.003 987.499 277.981C1121.32 260.958 1231.53 289.691 1286.47 368.156C1341.41 446.621 1330.72 560.011 1268.95 679.936C1207.19 799.856 1094.38 926.277 945.144 1030.77C795.914 1135.26 638.532 1198.03 504.72 1215.06C370.902 1232.08 260.694 1203.35 205.752 1124.88C150.81 1046.42 161.503 933.026 223.268 813.101C285.03 693.181 397.844 566.76 547.075 462.267Z" stroke="url(#paint46_linear_788_6830)" stroke-width="0.25"/>
<path d="M1029.34 547.143C1133.83 696.374 1196.6 853.756 1213.62 987.567C1230.65 1121.39 1201.91 1231.59 1123.45 1286.54C1044.98 1341.48 931.595 1330.78 811.669 1269.02C691.749 1207.26 565.328 1094.44 460.836 945.213C356.343 795.982 293.571 638.6 276.549 504.789C259.526 370.971 288.259 260.762 366.724 205.82C445.189 150.878 558.579 161.572 678.504 223.336C798.424 285.098 924.845 397.912 1029.34 547.143Z" stroke="url(#paint47_linear_788_6830)" stroke-width="0.25"/>
<path d="M1080.27 656.236C1127.42 832.206 1132.58 1001.57 1102.81 1133.13C1073.04 1264.7 1008.34 1358.43 915.82 1383.23C823.296 1408.02 720.401 1359.19 628.833 1260.13C537.269 1161.08 457.057 1011.83 409.906 835.86C362.755 659.89 357.597 490.531 387.367 358.967C417.139 227.397 481.833 133.662 574.357 108.87C666.882 84.0784 769.776 132.908 861.344 231.965C952.908 331.017 1033.12 480.267 1080.27 656.236Z" stroke="url(#paint48_linear_788_6830)" stroke-width="0.25"/>
<path d="M835.57 1080.38C659.601 1127.54 490.241 1132.69 358.677 1102.92C227.107 1073.15 133.372 1008.46 108.581 915.933C83.7887 823.409 132.619 720.515 231.676 628.946C330.728 537.383 479.977 457.17 655.947 410.019C831.916 362.868 1001.28 357.71 1132.84 387.48C1264.41 417.252 1358.14 481.946 1382.94 574.471C1407.73 666.995 1358.9 769.889 1259.84 861.457C1160.79 953.021 1011.54 1033.23 835.57 1080.38Z" stroke="url(#paint49_linear_788_6830)" stroke-width="0.25"/>
<path d="M918.995 446.059C1076.76 537.148 1200.17 653.256 1272.15 767.336C1344.13 881.422 1364.66 993.448 1316.77 1076.4C1268.88 1159.36 1161.59 1197.59 1026.8 1192.29C892.012 1187 729.758 1138.18 571.988 1047.09C414.218 956.004 290.815 839.896 218.836 725.815C146.854 611.729 126.319 499.703 174.213 416.748C222.107 333.793 329.392 295.564 464.185 300.859C598.971 306.154 761.225 354.971 918.995 446.059Z" stroke="url(#paint50_linear_788_6830)" stroke-width="0.25"/>
<path d="M1045.88 919.002C954.794 1076.77 838.686 1200.18 724.605 1272.15C610.519 1344.14 498.493 1364.67 415.538 1316.78C332.583 1268.88 294.354 1161.6 299.649 1026.81C304.944 892.02 353.76 729.766 444.849 571.996C535.938 414.226 652.046 290.823 766.126 218.844C880.212 146.862 992.238 126.327 1075.19 174.221C1158.15 222.115 1196.38 329.4 1191.08 464.193C1185.79 598.978 1136.97 761.232 1045.88 919.002Z" stroke="url(#paint51_linear_788_6830)" stroke-width="0.25"/>
<path d="M791.174 402.788C971.793 426.567 1130.24 486.612 1240.39 564.464C1350.55 642.319 1412.4 737.959 1399.89 832.928C1387.39 927.897 1302.9 1004.27 1176.34 1050.96C1049.79 1097.65 881.206 1114.64 700.588 1090.86C519.969 1067.08 361.527 1007.04 251.371 929.188C141.209 851.333 79.3664 755.692 91.8692 660.724C104.372 565.755 188.861 489.379 315.419 442.689C441.971 396 610.556 379.009 791.174 402.788Z" stroke="url(#paint52_linear_788_6830)" stroke-width="0.25"/>
<path d="M1089.39 791.174C1065.61 971.793 1005.57 1130.24 927.716 1240.39C849.861 1350.55 754.22 1412.4 659.252 1399.89C564.283 1387.39 487.908 1302.9 441.217 1176.34C394.529 1049.79 377.537 881.206 401.316 700.587C425.095 519.969 485.14 361.527 562.992 251.37C640.847 141.209 736.487 79.3664 831.456 91.8692C926.425 104.372 1002.8 188.861 1049.49 315.419C1096.18 441.971 1113.17 610.556 1089.39 791.174Z" stroke="url(#paint53_linear_788_6830)" stroke-width="0.25"/>
<path d="M534.892 471.203C679.423 360.301 833.917 290.724 966.858 267.881C1099.81 245.037 1211.16 268.935 1269.48 344.929C1327.79 420.923 1322.05 534.672 1265.58 657.177C1209.1 779.677 1101.91 910.899 957.38 1021.8C812.849 1132.7 658.355 1202.28 525.414 1225.12C392.466 1247.97 281.109 1224.07 222.796 1148.07C164.484 1072.08 170.221 958.332 226.696 835.827C283.169 713.328 390.361 582.106 534.892 471.203Z" stroke="url(#paint54_linear_788_6830)" stroke-width="0.25"/>
<path d="M1020.39 534.964C1131.3 679.495 1200.87 833.989 1223.72 966.93C1246.56 1099.88 1222.66 1211.24 1146.67 1269.55C1070.67 1327.86 956.926 1322.12 834.421 1265.65C711.921 1209.18 580.699 1101.98 469.797 957.452C358.894 812.922 289.317 658.428 266.474 525.486C243.631 392.538 267.529 281.181 343.523 222.869C419.517 164.556 533.265 170.294 655.771 226.769C778.27 283.241 909.492 390.433 1020.39 534.964Z" stroke="url(#paint55_linear_788_6830)" stroke-width="0.25"/>
<path d="M1076.04 641.731C1130.82 815.476 1143.36 984.45 1119.36 1117.19C1095.35 1249.93 1034.81 1346.4 943.454 1375.2C852.099 1404.01 747.173 1359.71 651.371 1264.74C555.574 1169.78 468.928 1024.17 414.146 850.425C359.364 676.679 346.823 507.706 370.827 374.969C394.831 242.225 455.375 145.758 546.73 116.953C638.085 88.1494 743.011 132.445 838.813 227.413C934.61 322.377 1021.26 467.985 1076.04 641.731Z" stroke="url(#paint56_linear_788_6830)" stroke-width="0.25"/>
<path d="M850.076 1076.15C676.33 1130.93 507.357 1143.47 374.62 1119.47C241.876 1095.46 145.409 1034.92 116.605 943.564C87.8005 852.209 132.096 747.283 227.064 651.481C322.028 555.683 467.637 469.037 641.382 414.255C815.127 359.474 984.101 346.933 1116.84 370.936C1249.58 394.941 1346.05 455.484 1374.85 546.839C1403.66 638.194 1359.36 743.12 1264.39 838.922C1169.43 934.719 1023.82 1021.37 850.076 1076.15Z" stroke="url(#paint57_linear_788_6830)" stroke-width="0.25"/>
<path d="M905.75 438.79C1067.34 522.91 1195.69 633.525 1272.58 744.357C1349.47 855.194 1374.87 966.218 1330.64 1051.18C1286.41 1136.15 1180.9 1179.02 1046 1179.61C911.112 1180.2 746.883 1138.51 585.29 1054.39C423.697 970.267 295.347 859.653 218.46 748.821C141.571 637.983 116.168 526.959 160.398 441.994C204.629 357.029 310.144 314.156 445.039 313.567C579.928 312.978 744.156 354.67 905.75 438.79Z" stroke="url(#paint58_linear_788_6830)" stroke-width="0.25"/>
<path d="M1053.15 905.75C969.027 1067.34 858.413 1195.69 747.581 1272.58C636.743 1349.47 525.719 1374.87 440.754 1330.64C355.789 1286.41 312.916 1180.9 312.327 1046C311.738 911.112 353.43 746.883 437.55 585.29C521.67 423.697 632.285 295.347 743.117 218.46C853.955 141.571 964.978 116.168 1049.94 160.398C1134.91 204.629 1177.78 310.144 1178.37 445.039C1178.96 579.928 1137.27 744.156 1053.15 905.75Z" stroke="url(#paint59_linear_788_6830)" stroke-width="0.25"/>
<path d="M776.164 401.137C957.648 417.015 1118.56 470.092 1232.01 543.065C1345.46 616.041 1411.41 708.893 1403.07 804.316C1394.72 899.74 1313.64 979.728 1189.24 1031.89C1064.84 1084.06 897.161 1108.39 715.677 1092.51C534.193 1076.63 373.282 1023.56 259.835 950.583C146.383 877.606 80.427 784.755 88.7755 689.331C97.124 593.907 178.201 513.919 302.602 461.753C426.997 409.589 594.68 385.26 776.164 401.137Z" stroke="url(#paint60_linear_788_6830)" stroke-width="0.25"/>
<path d="M1091.04 776.146C1075.16 957.63 1022.09 1118.54 949.113 1231.99C876.137 1345.44 783.285 1411.4 687.861 1403.05C592.438 1394.7 512.449 1313.62 460.283 1189.22C408.119 1064.83 383.79 897.143 399.668 715.659C415.546 534.175 468.623 373.265 541.595 259.818C614.571 146.365 707.423 80.4094 802.847 88.7579C898.27 97.1064 978.258 178.184 1030.42 302.585C1082.59 426.98 1106.92 594.663 1091.04 776.146Z" stroke="url(#paint61_linear_788_6830)" stroke-width="0.25"/>
<path d="M523.108 480.663C662.664 363.561 813.976 287.312 945.795 258.692C1077.62 230.071 1189.91 249.089 1251.49 322.467C1313.06 395.845 1312.29 509.735 1261.21 634.588C1210.13 759.434 1108.77 895.207 969.212 1012.31C829.656 1129.41 678.344 1205.66 546.525 1234.28C414.7 1262.9 302.406 1243.88 240.835 1170.5C179.263 1097.13 180.033 983.235 231.111 858.383C282.186 733.537 383.553 597.764 523.108 480.663Z" stroke="url(#paint62_linear_788_6830)" stroke-width="0.25"/>
<path d="M1010.93 523.185C1128.03 662.74 1204.28 814.053 1232.9 945.871C1261.52 1077.7 1242.5 1189.99 1169.13 1251.56C1095.75 1313.13 981.858 1312.36 857.006 1261.29C732.16 1210.21 596.387 1108.84 479.286 969.288C362.185 829.732 285.935 678.42 257.315 546.601C228.694 414.776 247.712 302.483 321.09 240.911C394.468 179.34 508.359 180.11 633.211 231.187C758.057 282.262 893.83 383.629 1010.93 523.185Z" stroke="url(#paint63_linear_788_6830)" stroke-width="0.25"/>
<path d="M1071.18 627.427C1133.49 798.617 1153.39 966.883 1135.2 1100.54C1117.01 1234.2 1060.73 1333.22 970.717 1365.98C880.705 1398.74 773.947 1359.07 674.094 1268.37C574.245 1177.67 481.33 1035.98 419.022 864.794C356.713 693.603 336.814 525.337 355.005 391.68C373.196 258.016 429.474 158.999 519.486 126.237C609.497 93.4756 716.256 133.152 816.109 223.851C915.957 314.546 1008.87 456.236 1071.18 627.427Z" stroke="url(#paint64_linear_788_6830)" stroke-width="0.25"/>
<path d="M864.38 1071.29C693.189 1133.6 524.923 1153.5 391.266 1135.31C257.602 1117.11 158.585 1060.84 125.823 970.824C93.0618 880.813 132.738 774.054 223.437 674.201C314.132 574.353 455.823 481.437 627.013 419.129C798.204 356.821 966.47 336.921 1100.13 355.112C1233.79 373.304 1332.81 429.582 1365.57 519.593C1398.33 609.605 1358.65 716.363 1267.96 816.216C1177.26 916.065 1035.57 1008.98 864.38 1071.29Z" stroke="url(#paint65_linear_788_6830)" stroke-width="0.25"/>
<path d="M892.2 432.103C1057.31 509.095 1190.36 614.005 1272.01 721.378C1353.66 828.757 1383.88 938.567 1343.4 1025.38C1302.92 1112.19 1199.37 1159.63 1064.63 1166.1C929.897 1172.57 764.006 1138.08 598.898 1061.09C433.789 984.102 300.736 879.191 219.089 771.818C137.437 664.44 107.216 554.629 147.698 467.816C188.18 381.002 291.725 333.568 426.466 327.095C561.201 320.623 727.092 355.112 892.2 432.103Z" stroke="url(#paint66_linear_788_6830)" stroke-width="0.25"/>
<path d="M1059.83 892.19C982.837 1057.3 877.926 1190.35 770.553 1272C663.175 1353.65 553.365 1383.87 466.551 1343.39C379.738 1302.91 332.303 1199.36 325.831 1064.62C319.358 929.888 353.847 763.996 430.839 598.888C507.83 433.779 612.741 300.726 720.114 219.079C827.492 137.427 937.302 107.207 1024.12 147.689C1110.93 188.17 1158.36 291.715 1164.84 426.456C1171.31 561.191 1136.82 727.082 1059.83 892.19Z" stroke="url(#paint67_linear_788_6830)" stroke-width="0.25"/>
<path d="M761.1 400.137C943.104 408.084 1106.18 454.092 1222.7 522.046C1339.23 590.004 1409.17 679.891 1404.99 775.588C1400.81 871.285 1323.3 954.733 1201.29 1012.28C1079.29 1069.82 912.831 1101.44 730.828 1093.49C548.824 1085.54 385.751 1039.54 269.229 971.581C152.701 903.624 82.7582 813.737 86.9365 718.04C91.1147 622.343 168.626 538.895 290.633 481.351C412.634 423.811 579.096 392.191 761.1 400.137Z" stroke="url(#paint68_linear_788_6830)" stroke-width="0.25"/>
<path d="M1092.03 761.055C1084.09 943.059 1038.08 1106.13 970.124 1222.65C902.166 1339.18 812.279 1409.12 716.582 1404.95C620.885 1400.77 537.437 1323.26 479.894 1201.25C422.353 1079.25 390.733 912.786 398.68 730.783C406.626 548.779 452.634 385.706 520.588 269.184C588.546 152.656 678.433 82.7133 774.13 86.8916C869.827 91.0698 953.275 168.581 1010.82 290.588C1068.36 412.589 1099.98 579.051 1092.03 761.055Z" stroke="url(#paint69_linear_788_6830)" stroke-width="0.25"/>
<path d="M511.752 490.633C646.067 367.556 793.909 284.779 924.354 250.436C1054.8 216.092 1167.82 230.194 1232.53 300.817C1297.25 371.439 1301.45 485.254 1255.86 612.216C1210.28 739.171 1114.94 879.236 980.62 1002.31C846.305 1125.39 698.463 1208.17 568.018 1242.51C437.567 1276.85 324.551 1262.75 259.837 1192.13C195.123 1121.51 190.925 1007.69 236.508 880.73C282.089 753.775 377.436 613.71 511.752 490.633Z" stroke="url(#paint70_linear_788_6830)" stroke-width="0.25"/>
<path d="M1000.96 511.834C1124.04 646.149 1206.82 793.991 1241.16 924.436C1275.51 1054.89 1261.4 1167.9 1190.78 1232.62C1120.16 1297.33 1006.34 1301.53 879.382 1255.95C752.426 1210.36 612.361 1115.02 489.284 980.702C366.207 846.387 283.43 698.545 249.087 568.1C214.743 437.649 228.845 324.633 299.468 259.919C370.09 195.206 483.906 191.007 610.867 236.59C737.822 282.171 877.887 377.519 1000.96 511.834Z" stroke="url(#paint71_linear_788_6830)" stroke-width="0.25"/>
<defs>
<linearGradient id="paint0_linear_788_6830" x1="363.11" y1="50.7721" x2="1551.33" y2="659.904" gradientUnits="userSpaceOnUse">
<stop stop-color="#FF1C8B"/>
<stop offset="0.51" stop-color="#F05A2A"/>
<stop offset="1" stop-color="#65E3C3"/>
</linearGradient>
<linearGradient id="paint1_linear_788_6830" x1="1441.02" y1="363.251" x2="831.893" y2="1551.47" gradientUnits="userSpaceOnUse">
<stop stop-color="#FF1C8B"/>
<stop offset="0.51" stop-color="#F05A2A"/>
<stop offset="1" stop-color="#65E3C3"/>
</linearGradient>
<linearGradient id="paint2_linear_788_6830" x1="-16.265" y1="525.057" x2="1254.65" y2="115.58" gradientUnits="userSpaceOnUse">
<stop stop-color="#FF1C8B"/>
<stop offset="0.51" stop-color="#F05A2A"/>
<stop offset="1" stop-color="#65E3C3"/>
</linearGradient>
<linearGradient id="paint3_linear_788_6830" x1="966.898" y1="-16.1868" x2="1376.38" y2="1254.73" gradientUnits="userSpaceOnUse">
<stop stop-color="#FF1C8B"/>
<stop offset="0.51" stop-color="#F05A2A"/>
<stop offset="1" stop-color="#65E3C3"/>
</linearGradient>
<linearGradient id="paint4_linear_788_6830" x1="-42.7107" y1="833.702" x2="974.765" y2="-30.9657" gradientUnits="userSpaceOnUse">
<stop stop-color="#FF1C8B"/>
<stop offset="0.51" stop-color="#F05A2A"/>
<stop offset="1" stop-color="#65E3C3"/>
</linearGradient>
<linearGradient id="paint5_linear_788_6830" x1="658.485" y1="-42.5799" x2="1523.15" y2="974.896" gradientUnits="userSpaceOnUse">
<stop stop-color="#FF1C8B"/>
<stop offset="0.51" stop-color="#F05A2A"/>
<stop offset="1" stop-color="#65E3C3"/>
</linearGradient>
<linearGradient id="paint6_linear_788_6830" x1="249.964" y1="1365.45" x2="358.016" y2="34.5739" gradientUnits="userSpaceOnUse">
<stop stop-color="#FF1C8B"/>
<stop offset="0.51" stop-color="#F05A2A"/>
<stop offset="1" stop-color="#65E3C3"/>
</linearGradient>
<linearGradient id="paint7_linear_788_6830" x1="126.157" y1="250.007" x2="1457.03" y2="358.059" gradientUnits="userSpaceOnUse">
<stop stop-color="#FF1C8B"/>
<stop offset="0.51" stop-color="#F05A2A"/>
<stop offset="1" stop-color="#65E3C3"/>
</linearGradient>
<linearGradient id="paint8_linear_788_6830" x1="333.152" y1="68.1258" x2="1546.81" y2="624.848" gradientUnits="userSpaceOnUse">
<stop stop-color="#FF1C8B"/>
<stop offset="0.51" stop-color="#F05A2A"/>
<stop offset="1" stop-color="#65E3C3"/>
</linearGradient>
<linearGradient id="paint9_linear_788_6830" x1="1423.67" y1="333.289" x2="866.949" y2="1546.95" gradientUnits="userSpaceOnUse">
<stop stop-color="#FF1C8B"/>
<stop offset="0.51" stop-color="#F05A2A"/>
<stop offset="1" stop-color="#65E3C3"/>
</linearGradient>
<linearGradient id="paint10_linear_788_6830" x1="-25.17" y1="558.508" x2="1226.68" y2="93.9834" gradientUnits="userSpaceOnUse">
<stop stop-color="#FF1C8B"/>
<stop offset="0.51" stop-color="#F05A2A"/>
<stop offset="1" stop-color="#65E3C3"/>
</linearGradient>
<linearGradient id="paint11_linear_788_6830" x1="933.443" y1="-25.1075" x2="1397.97" y2="1226.74" gradientUnits="userSpaceOnUse">
<stop stop-color="#FF1C8B"/>
<stop offset="0.51" stop-color="#F05A2A"/>
<stop offset="1" stop-color="#65E3C3"/>
</linearGradient>
<linearGradient id="paint12_linear_788_6830" x1="-38.1301" y1="868.013" x2="940.661" y2="-40.2138" gradientUnits="userSpaceOnUse">
<stop stop-color="#FF1C8B"/>
<stop offset="0.51" stop-color="#F05A2A"/>
<stop offset="1" stop-color="#65E3C3"/>
</linearGradient>
<linearGradient id="paint13_linear_788_6830" x1="624.177" y1="-38.0207" x2="1532.4" y2="940.771" gradientUnits="userSpaceOnUse">
<stop stop-color="#FF1C8B"/>
<stop offset="0.51" stop-color="#F05A2A"/>
<stop offset="1" stop-color="#65E3C3"/>
</linearGradient>
<linearGradient id="paint14_linear_788_6830" x1="277.46" y1="1386.49" x2="327.357" y2="52.1656" gradientUnits="userSpaceOnUse">
<stop stop-color="#FF1C8B"/>
<stop offset="0.51" stop-color="#F05A2A"/>
<stop offset="1" stop-color="#65E3C3"/>
</linearGradient>
<linearGradient id="paint15_linear_788_6830" x1="105.113" y1="277.509" x2="1439.44" y2="327.405" gradientUnits="userSpaceOnUse">
<stop stop-color="#FF1C8B"/>
<stop offset="0.51" stop-color="#F05A2A"/>
<stop offset="1" stop-color="#65E3C3"/>
</linearGradient>
<linearGradient id="paint16_linear_788_6830" x1="303.982" y1="86.7702" x2="1540.77" y2="590.023" gradientUnits="userSpaceOnUse">
<stop stop-color="#FF1C8B"/>
<stop offset="0.51" stop-color="#F05A2A"/>
<stop offset="1" stop-color="#65E3C3"/>
</linearGradient>
<linearGradient id="paint17_linear_788_6830" x1="1405.03" y1="304.113" x2="901.775" y2="1540.9" gradientUnits="userSpaceOnUse">
<stop stop-color="#FF1C8B"/>
<stop offset="0.51" stop-color="#F05A2A"/>
<stop offset="1" stop-color="#65E3C3"/>
</linearGradient>
<linearGradient id="paint18_linear_788_6830" x1="-32.6095" y1="592.317" x2="1197.79" y2="73.6292" gradientUnits="userSpaceOnUse">
<stop stop-color="#FF1C8B"/>
<stop offset="0.51" stop-color="#F05A2A"/>
<stop offset="1" stop-color="#65E3C3"/>
</linearGradient>
<linearGradient id="paint19_linear_788_6830" x1="899.638" y1="-32.5568" x2="1418.33" y2="1197.84" gradientUnits="userSpaceOnUse">
<stop stop-color="#FF1C8B"/>
<stop offset="0.51" stop-color="#F05A2A"/>
<stop offset="1" stop-color="#65E3C3"/>
</linearGradient>
<linearGradient id="paint20_linear_788_6830" x1="-32.0554" y1="902.091" x2="906.188" y2="-47.9657" gradientUnits="userSpaceOnUse">
<stop stop-color="#FF1C8B"/>
<stop offset="0.51" stop-color="#F05A2A"/>
<stop offset="1" stop-color="#65E3C3"/>
</linearGradient>
<linearGradient id="paint21_linear_788_6830" x1="590.097" y1="-31.9675" x2="1540.15" y2="906.276" gradientUnits="userSpaceOnUse">
<stop stop-color="#FF1C8B"/>
<stop offset="0.51" stop-color="#F05A2A"/>
<stop offset="1" stop-color="#65E3C3"/>
</linearGradient>
<linearGradient id="paint22_linear_788_6830" x1="305.846" y1="1406.31" x2="297.493" y2="71.0799" gradientUnits="userSpaceOnUse">
<stop stop-color="#FF1C8B"/>
<stop offset="0.51" stop-color="#F05A2A"/>
<stop offset="1" stop-color="#65E3C3"/>
</linearGradient>
<linearGradient id="paint23_linear_788_6830" x1="85.2938" y1="305.9" x2="1420.52" y2="297.547" gradientUnits="userSpaceOnUse">
<stop stop-color="#FF1C8B"/>
<stop offset="0.51" stop-color="#F05A2A"/>
<stop offset="1" stop-color="#65E3C3"/>
</linearGradient>
<linearGradient id="paint24_linear_788_6830" x1="275.649" y1="106.667" x2="1533.21" y2="555.494" gradientUnits="userSpaceOnUse">
<stop stop-color="#FF1C8B"/>
<stop offset="0.51" stop-color="#F05A2A"/>
<stop offset="1" stop-color="#65E3C3"/>
</linearGradient>
<linearGradient id="paint25_linear_788_6830" x1="1385.13" y1="275.782" x2="936.307" y2="1533.34" gradientUnits="userSpaceOnUse">
<stop stop-color="#FF1C8B"/>
<stop offset="0.51" stop-color="#F05A2A"/>
<stop offset="1" stop-color="#65E3C3"/>
</linearGradient>
<linearGradient id="paint26_linear_788_6830" x1="-38.5663" y1="626.416" x2="1168.03" y2="54.5535" gradientUnits="userSpaceOnUse">
<stop stop-color="#FF1C8B"/>
<stop offset="0.51" stop-color="#F05A2A"/>
<stop offset="1" stop-color="#65E3C3"/>
</linearGradient>
<linearGradient id="paint27_linear_788_6830" x1="865.535" y1="-38.5253" x2="1437.4" y2="1168.07" gradientUnits="userSpaceOnUse">
<stop stop-color="#FF1C8B"/>
<stop offset="0.51" stop-color="#F05A2A"/>
<stop offset="1" stop-color="#65E3C3"/>
</linearGradient>
<linearGradient id="paint28_linear_788_6830" x1="-24.5022" y1="935.874" x2="871.408" y2="-54.2041" gradientUnits="userSpaceOnUse">
<stop stop-color="#FF1C8B"/>
<stop offset="0.51" stop-color="#F05A2A"/>
<stop offset="1" stop-color="#65E3C3"/>
</linearGradient>
<linearGradient id="paint29_linear_788_6830" x1="556.316" y1="-24.4397" x2="1546.39" y2="871.47" gradientUnits="userSpaceOnUse">
<stop stop-color="#FF1C8B"/>
<stop offset="0.51" stop-color="#F05A2A"/>
<stop offset="1" stop-color="#65E3C3"/>
</linearGradient>
<linearGradient id="paint30_linear_788_6830" x1="335.071" y1="1424.87" x2="268.484" y2="91.2761" gradientUnits="userSpaceOnUse">
<stop stop-color="#FF1C8B"/>
<stop offset="0.51" stop-color="#F05A2A"/>
<stop offset="1" stop-color="#65E3C3"/>
</linearGradient>
<linearGradient id="paint31_linear_788_6830" x1="66.7289" y1="335.128" x2="1400.32" y2="268.541" gradientUnits="userSpaceOnUse">
<stop stop-color="#FF1C8B"/>
<stop offset="0.51" stop-color="#F05A2A"/>
<stop offset="1" stop-color="#65E3C3"/>
</linearGradient>
<linearGradient id="paint32_linear_788_6830" x1="248.217" y1="127.786" x2="1524.16" y2="521.331" gradientUnits="userSpaceOnUse">
<stop stop-color="#FF1C8B"/>
<stop offset="0.51" stop-color="#F05A2A"/>
<stop offset="1" stop-color="#65E3C3"/>
</linearGradient>
<linearGradient id="paint33_linear_788_6830" x1="1364.02" y1="248.341" x2="970.473" y2="1524.28" gradientUnits="userSpaceOnUse">
<stop stop-color="#FF1C8B"/>
<stop offset="0.51" stop-color="#F05A2A"/>
<stop offset="1" stop-color="#65E3C3"/>
</linearGradient>
<linearGradient id="paint34_linear_788_6830" x1="-43.0349" y1="660.747" x2="1137.47" y2="36.7969" gradientUnits="userSpaceOnUse">
<stop stop-color="#FF1C8B"/>
<stop offset="0.51" stop-color="#F05A2A"/>
<stop offset="1" stop-color="#65E3C3"/>
</linearGradient>
<linearGradient id="paint35_linear_788_6830" x1="831.205" y1="-43.0037" x2="1455.15" y2="1137.5" gradientUnits="userSpaceOnUse">
<stop stop-color="#FF1C8B"/>
<stop offset="0.51" stop-color="#F05A2A"/>
<stop offset="1" stop-color="#65E3C3"/>
</linearGradient>
<linearGradient id="paint36_linear_788_6830" x1="-15.4802" y1="969.292" x2="836.39" y2="-58.9228" gradientUnits="userSpaceOnUse">
<stop stop-color="#FF1C8B"/>
<stop offset="0.51" stop-color="#F05A2A"/>
<stop offset="1" stop-color="#65E3C3"/>
</linearGradient>
<linearGradient id="paint37_linear_788_6830" x1="522.898" y1="-15.4392" x2="1551.11" y2="836.431" gradientUnits="userSpaceOnUse">
<stop stop-color="#FF1C8B"/>
<stop offset="0.51" stop-color="#F05A2A"/>
<stop offset="1" stop-color="#65E3C3"/>
</linearGradient>
<linearGradient id="paint38_linear_788_6830" x1="365.078" y1="1442.14" x2="240.384" y2="112.723" gradientUnits="userSpaceOnUse">
<stop stop-color="#FF1C8B"/>
<stop offset="0.51" stop-color="#F05A2A"/>
<stop offset="1" stop-color="#65E3C3"/>
</linearGradient>
<linearGradient id="paint39_linear_788_6830" x1="49.4601" y1="365.14" x2="1378.88" y2="240.446" gradientUnits="userSpaceOnUse">
<stop stop-color="#FF1C8B"/>
<stop offset="0.51" stop-color="#F05A2A"/>
<stop offset="1" stop-color="#65E3C3"/>
</linearGradient>
<linearGradient id="paint40_linear_788_6830" x1="221.73" y1="150.079" x2="1513.62" y2="487.594" gradientUnits="userSpaceOnUse">
<stop stop-color="#FF1C8B"/>
<stop offset="0.51" stop-color="#F05A2A"/>
<stop offset="1" stop-color="#65E3C3"/>
</linearGradient>
<linearGradient id="paint41_linear_788_6830" x1="1341.73" y1="221.847" x2="1004.21" y2="1513.74" gradientUnits="userSpaceOnUse">
<stop stop-color="#FF1C8B"/>
<stop offset="0.51" stop-color="#F05A2A"/>
<stop offset="1" stop-color="#65E3C3"/>
</linearGradient>
<linearGradient id="paint42_linear_788_6830" x1="-45.9944" y1="695.235" x2="1106.17" y2="20.3861" gradientUnits="userSpaceOnUse">
<stop stop-color="#FF1C8B"/>
<stop offset="0.51" stop-color="#F05A2A"/>
<stop offset="1" stop-color="#65E3C3"/>
</linearGradient>
<linearGradient id="paint43_linear_788_6830" x1="796.71" y1="-45.9768" x2="1471.56" y2="1106.19" gradientUnits="userSpaceOnUse">
<stop stop-color="#FF1C8B"/>
<stop offset="0.51" stop-color="#F05A2A"/>
<stop offset="1" stop-color="#65E3C3"/>
</linearGradient>
<linearGradient id="paint44_linear_788_6830" x1="-5.00905" y1="1002.29" x2="801.201" y2="-62.1075" gradientUnits="userSpaceOnUse">
<stop stop-color="#FF1C8B"/>
<stop offset="0.51" stop-color="#F05A2A"/>
<stop offset="1" stop-color="#65E3C3"/>
</linearGradient>
<linearGradient id="paint45_linear_788_6830" x1="489.897" y1="-4.99147" x2="1554.29" y2="801.218" gradientUnits="userSpaceOnUse">
<stop stop-color="#FF1C8B"/>
<stop offset="0.51" stop-color="#F05A2A"/>
<stop offset="1" stop-color="#65E3C3"/>
</linearGradient>
<linearGradient id="paint46_linear_788_6830" x1="395.812" y1="1458.09" x2="213.248" y2="135.371" gradientUnits="userSpaceOnUse">
<stop stop-color="#FF1C8B"/>
<stop offset="0.51" stop-color="#F05A2A"/>
<stop offset="1" stop-color="#65E3C3"/>
</linearGradient>
<linearGradient id="paint47_linear_788_6830" x1="33.5177" y1="395.88" x2="1356.23" y2="213.317" gradientUnits="userSpaceOnUse">
<stop stop-color="#FF1C8B"/>
<stop offset="0.51" stop-color="#F05A2A"/>
<stop offset="1" stop-color="#65E3C3"/>
</linearGradient>
<linearGradient id="paint48_linear_788_6830" x1="196.241" y1="173.505" x2="1501.63" y2="454.347" gradientUnits="userSpaceOnUse">
<stop stop-color="#FF1C8B"/>
<stop offset="0.51" stop-color="#F05A2A"/>
<stop offset="1" stop-color="#65E3C3"/>
</linearGradient>
<linearGradient id="paint49_linear_788_6830" x1="1318.3" y1="196.354" x2="1037.46" y2="1501.74" gradientUnits="userSpaceOnUse">
<stop stop-color="#FF1C8B"/>
<stop offset="0.51" stop-color="#F05A2A"/>
<stop offset="1" stop-color="#65E3C3"/>
</linearGradient>
<linearGradient id="paint50_linear_788_6830" x1="-47.4514" y1="729.821" x2="1074.18" y2="5.35729" gradientUnits="userSpaceOnUse">
<stop stop-color="#FF1C8B"/>
<stop offset="0.51" stop-color="#F05A2A"/>
<stop offset="1" stop-color="#65E3C3"/>
</linearGradient>
<linearGradient id="paint51_linear_788_6830" x1="762.121" y1="-47.4436" x2="1486.58" y2="1074.19" gradientUnits="userSpaceOnUse">
<stop stop-color="#FF1C8B"/>
<stop offset="0.51" stop-color="#F05A2A"/>
<stop offset="1" stop-color="#65E3C3"/>
</linearGradient>
<linearGradient id="paint52_linear_788_6830" x1="6.88548" y1="1034.79" x2="765.9" y2="-63.7553" gradientUnits="userSpaceOnUse">
<stop stop-color="#FF1C8B"/>
<stop offset="0.51" stop-color="#F05A2A"/>
<stop offset="1" stop-color="#65E3C3"/>
</linearGradient>
<linearGradient id="paint53_linear_788_6830" x1="457.388" y1="6.88549" x2="1555.93" y2="765.899" gradientUnits="userSpaceOnUse">
<stop stop-color="#FF1C8B"/>
<stop offset="0.51" stop-color="#F05A2A"/>
<stop offset="1" stop-color="#65E3C3"/>
</linearGradient>
<linearGradient id="paint54_linear_788_6830" x1="427.21" y1="1472.67" x2="187.124" y2="159.179" gradientUnits="userSpaceOnUse">
<stop stop-color="#FF1C8B"/>
<stop offset="0.51" stop-color="#F05A2A"/>
<stop offset="1" stop-color="#65E3C3"/>
</linearGradient>
<linearGradient id="paint55_linear_788_6830" x1="18.924" y1="427.282" x2="1332.42" y2="187.196" gradientUnits="userSpaceOnUse">
<stop stop-color="#FF1C8B"/>
<stop offset="0.51" stop-color="#F05A2A"/>
<stop offset="1" stop-color="#65E3C3"/>
</linearGradient>
<linearGradient id="paint56_linear_788_6830" x1="171.793" y1="198.02" x2="1488.19" y2="421.654" gradientUnits="userSpaceOnUse">
<stop stop-color="#FF1C8B"/>
<stop offset="0.51" stop-color="#F05A2A"/>
<stop offset="1" stop-color="#65E3C3"/>
</linearGradient>
<linearGradient id="paint57_linear_788_6830" x1="1293.79" y1="171.902" x2="1070.15" y2="1488.3" gradientUnits="userSpaceOnUse">
<stop stop-color="#FF1C8B"/>
<stop offset="0.51" stop-color="#F05A2A"/>
<stop offset="1" stop-color="#65E3C3"/>
</linearGradient>
<linearGradient id="paint58_linear_788_6830" x1="-47.3992" y1="764.437" x2="1041.57" y2="-8.26156" gradientUnits="userSpaceOnUse">
<stop stop-color="#FF1C8B"/>
<stop offset="0.51" stop-color="#F05A2A"/>
<stop offset="1" stop-color="#65E3C3"/>
</linearGradient>
<linearGradient id="paint59_linear_788_6830" x1="727.5" y1="-47.3991" x2="1500.2" y2="1041.57" gradientUnits="userSpaceOnUse">
<stop stop-color="#FF1C8B"/>
<stop offset="0.51" stop-color="#F05A2A"/>
<stop offset="1" stop-color="#65E3C3"/>
</linearGradient>
<linearGradient id="paint60_linear_788_6830" x1="20.1893" y1="1066.75" x2="730.563" y2="-63.859" gradientUnits="userSpaceOnUse">
<stop stop-color="#FF1C8B"/>
<stop offset="0.51" stop-color="#F05A2A"/>
<stop offset="1" stop-color="#65E3C3"/>
</linearGradient>
<linearGradient id="paint61_linear_788_6830" x1="425.427" y1="20.1717" x2="1556.04" y2="730.545" gradientUnits="userSpaceOnUse">
<stop stop-color="#FF1C8B"/>
<stop offset="0.51" stop-color="#F05A2A"/>
<stop offset="1" stop-color="#65E3C3"/>
</linearGradient>
<linearGradient id="paint62_linear_788_6830" x1="459.213" y1="1485.88" x2="162.061" y2="184.105" gradientUnits="userSpaceOnUse">
<stop stop-color="#FF1C8B"/>
<stop offset="0.51" stop-color="#F05A2A"/>
<stop offset="1" stop-color="#65E3C3"/>
</linearGradient>
<linearGradient id="paint63_linear_788_6830" x1="5.7168" y1="459.289" x2="1307.49" y2="162.138" gradientUnits="userSpaceOnUse">
<stop stop-color="#FF1C8B"/>
<stop offset="0.51" stop-color="#F05A2A"/>
<stop offset="1" stop-color="#65E3C3"/>
</linearGradient>
<linearGradient id="paint64_linear_788_6830" x1="148.442" y1="223.581" x2="1473.34" y2="389.582" gradientUnits="userSpaceOnUse">
<stop stop-color="#FF1C8B"/>
<stop offset="0.51" stop-color="#F05A2A"/>
<stop offset="1" stop-color="#65E3C3"/>
</linearGradient>
<linearGradient id="paint65_linear_788_6830" x1="1268.23" y1="148.549" x2="1102.22" y2="1473.45" gradientUnits="userSpaceOnUse">
<stop stop-color="#FF1C8B"/>
<stop offset="0.51" stop-color="#F05A2A"/>
<stop offset="1" stop-color="#65E3C3"/>
</linearGradient>
<linearGradient id="paint66_linear_788_6830" x1="-45.8367" y1="799.016" x2="1008.39" y2="-20.4471" gradientUnits="userSpaceOnUse">
<stop stop-color="#FF1C8B"/>
<stop offset="0.51" stop-color="#F05A2A"/>
<stop offset="1" stop-color="#65E3C3"/>
</linearGradient>
<linearGradient id="paint67_linear_788_6830" x1="692.915" y1="-45.8465" x2="1512.38" y2="1008.38" gradientUnits="userSpaceOnUse">
<stop stop-color="#FF1C8B"/>
<stop offset="0.51" stop-color="#F05A2A"/>
<stop offset="1" stop-color="#65E3C3"/>
</linearGradient>
<linearGradient id="paint68_linear_788_6830" x1="34.8783" y1="1098.09" x2="695.259" y2="-62.4274" gradientUnits="userSpaceOnUse">
<stop stop-color="#FF1C8B"/>
<stop offset="0.51" stop-color="#F05A2A"/>
<stop offset="1" stop-color="#65E3C3"/>
</linearGradient>
<linearGradient id="paint69_linear_788_6830" x1="394.078" y1="34.8334" x2="1554.6" y2="695.214" gradientUnits="userSpaceOnUse">
<stop stop-color="#FF1C8B"/>
<stop offset="0.51" stop-color="#F05A2A"/>
<stop offset="1" stop-color="#65E3C3"/>
</linearGradient>
<linearGradient id="paint70_linear_788_6830" x1="491.764" y1="1497.68" x2="138.113" y2="210.107" gradientUnits="userSpaceOnUse">
<stop stop-color="#FF1C8B"/>
<stop offset="0.51" stop-color="#F05A2A"/>
<stop offset="1" stop-color="#65E3C3"/>
</linearGradient>
<linearGradient id="paint71_linear_788_6830" x1="-6.08002" y1="491.846" x2="1281.49" y2="138.195" gradientUnits="userSpaceOnUse">
<stop stop-color="#FF1C8B"/>
<stop offset="0.51" stop-color="#F05A2A"/>
<stop offset="1" stop-color="#65E3C3"/>
</linearGradient>
</defs>
</svg>
