<svg width="33" height="34" viewBox="0 0 33 34" fill="none" xmlns="http://www.w3.org/2000/svg">
<path d="M27.3729 19.8125C27.3758 20.2712 27.2364 20.7195 26.974 21.0957C26.7116 21.472 26.339 21.7576 25.9076 21.9134L18.6542 24.5937L15.9823 31.8528C15.8241 32.2827 15.5378 32.6536 15.1621 32.9157C14.7864 33.1777 14.3394 33.3182 13.8813 33.3182C13.4233 33.3182 12.9763 33.1777 12.6006 32.9157C12.2249 32.6536 11.9386 32.2827 11.7804 31.8528L9.09165 24.5937L1.83259 21.9219C1.40274 21.7636 1.03177 21.4774 0.769728 21.1017C0.507687 20.726 0.367187 20.279 0.367188 19.8209C0.367187 19.3629 0.507687 18.9159 0.769728 18.5402C1.03177 18.1645 1.40274 17.8782 1.83259 17.72L9.09165 15.0312L11.7635 7.77219C11.9218 7.34234 12.208 6.97136 12.5837 6.70932C12.9594 6.44728 13.4064 6.30678 13.8645 6.30678C14.3225 6.30678 14.7695 6.44728 15.1452 6.70932C15.5209 6.97136 15.8072 7.34234 15.9654 7.77219L18.6542 15.0312L25.9132 17.7031C26.345 17.8603 26.7173 18.1477 26.9787 18.5255C27.2402 18.9034 27.3779 19.353 27.3729 19.8125ZM19.4979 6.3125H21.7479V8.5625C21.7479 8.86087 21.8664 9.14702 22.0774 9.35799C22.2884 9.56897 22.5745 9.6875 22.8729 9.6875C23.1713 9.6875 23.4574 9.56897 23.6684 9.35799C23.8794 9.14702 23.9979 8.86087 23.9979 8.5625V6.3125H26.2479C26.5463 6.3125 26.8324 6.19397 27.0434 5.98299C27.2544 5.77202 27.3729 5.48587 27.3729 5.1875C27.3729 4.88913 27.2544 4.60298 27.0434 4.392C26.8324 4.18103 26.5463 4.0625 26.2479 4.0625H23.9979V1.8125C23.9979 1.51413 23.8794 1.22798 23.6684 1.017C23.4574 0.806026 23.1713 0.6875 22.8729 0.6875C22.5745 0.6875 22.2884 0.806026 22.0774 1.017C21.8664 1.22798 21.7479 1.51413 21.7479 1.8125V4.0625H19.4979C19.1995 4.0625 18.9134 4.18103 18.7024 4.392C18.4914 4.60298 18.3729 4.88913 18.3729 5.1875C18.3729 5.48587 18.4914 5.77202 18.7024 5.98299C18.9134 6.19397 19.1995 6.3125 19.4979 6.3125ZM31.8729 10.8125H30.7479V9.6875C30.7479 9.38913 30.6294 9.10298 30.4184 8.892C30.2074 8.68103 29.9213 8.5625 29.6229 8.5625C29.3245 8.5625 29.0384 8.68103 28.8274 8.892C28.6164 9.10298 28.4979 9.38913 28.4979 9.6875V10.8125H27.3729C27.0745 10.8125 26.7884 10.931 26.5774 11.142C26.3664 11.353 26.2479 11.6391 26.2479 11.9375C26.2479 12.2359 26.3664 12.522 26.5774 12.733C26.7884 12.944 27.0745 13.0625 27.3729 13.0625H28.4979V14.1875C28.4979 14.4859 28.6164 14.772 28.8274 14.983C29.0384 15.194 29.3245 15.3125 29.6229 15.3125C29.9213 15.3125 30.2074 15.194 30.4184 14.983C30.6294 14.772 30.7479 14.4859 30.7479 14.1875V13.0625H31.8729C32.1713 13.0625 32.4574 12.944 32.6684 12.733C32.8794 12.522 32.9979 12.2359 32.9979 11.9375C32.9979 11.6391 32.8794 11.353 32.6684 11.142C32.4574 10.931 32.1713 10.8125 31.8729 10.8125Z" fill="white"/>
</svg>
