<svg width="31" height="32" viewBox="0 0 31 32" fill="none" xmlns="http://www.w3.org/2000/svg">
<path d="M23.9354 4.21048L23.8304 9.89545C23.8154 10.6754 24.3104 11.7105 24.9404 12.1755L28.6604 14.9954C31.0454 16.7954 30.6554 19.0005 27.8054 19.9005L22.9604 21.4154C22.1504 21.6704 21.2954 22.5555 21.0854 23.3805L19.9304 27.7904C19.0154 31.2704 16.7354 31.6154 14.8454 28.5554L12.2054 24.2804C11.7254 23.5004 10.5854 22.9155 9.68536 22.9605L4.67542 23.2155C1.09042 23.3955 0.0704016 21.3255 2.4104 18.5955L5.38037 15.1454C5.93537 14.5004 6.19036 13.3005 5.93536 12.4905L4.42044 7.64545C3.53544 4.79545 5.12542 3.22047 7.96042 4.15047L12.3854 5.60547C13.1354 5.84547 14.2604 5.68045 14.8904 5.21545L19.5104 1.88545C22.0004 0.0854516 23.9954 1.13548 23.9354 4.21048Z" stroke="#E8E7ED" stroke-width="1.5" stroke-linecap="round" stroke-linejoin="round"/>
</svg>
