<svg width="36" height="36" viewBox="0 0 36 36" fill="none" xmlns="http://www.w3.org/2000/svg">
<path d="M25.9354 6.21048L25.8304 11.8954C25.8154 12.6754 26.3104 13.7105 26.9404 14.1755L30.6604 16.9954C33.0454 18.7954 32.6554 21.0005 29.8054 21.9005L24.9604 23.4154C24.1504 23.6704 23.2954 24.5555 23.0854 25.3805L21.9304 29.7904C21.0154 33.2704 18.7354 33.6154 16.8454 30.5554L14.2054 26.2804C13.7254 25.5004 12.5854 24.9155 11.6854 24.9605L6.67542 25.2155C3.09042 25.3955 2.0704 23.3255 4.4104 20.5955L7.38037 17.1454C7.93537 16.5004 8.19036 15.3005 7.93536 14.4905L6.42044 9.64545C5.53544 6.79545 7.12542 5.22047 9.96042 6.15047L14.3854 7.60547C15.1354 7.84547 16.2604 7.68045 16.8904 7.21545L21.5104 3.88545C24.0004 2.08545 25.9954 3.13548 25.9354 6.21048Z" stroke="#E8E7ED" stroke-width="1.5" stroke-linecap="round" stroke-linejoin="round"/>
<path opacity="0.4" d="M32.8653 33.0001L28.3203 28.4551" stroke="#E8E7ED" stroke-width="1.5" stroke-linecap="round" stroke-linejoin="round"/>
</svg>
