<svg width="36" height="36" viewBox="0 0 36 36" fill="none" xmlns="http://www.w3.org/2000/svg">
<path opacity="0.4" d="M26.9972 10.74C26.9072 10.725 26.8022 10.725 26.7122 10.74C24.6422 10.665 22.9922 8.97 22.9922 6.87C22.9922 4.725 24.7172 3 26.8622 3C29.0072 3 30.7322 4.74 30.7322 6.87C30.7172 8.97 29.0672 10.665 26.9972 10.74Z" stroke="#E8E7ED" stroke-width="1.5" stroke-linecap="round" stroke-linejoin="round"/>
<path opacity="0.4" d="M25.4513 21.6602C27.5063 22.0052 29.7713 21.6452 31.3613 20.5802C33.4763 19.1702 33.4763 16.8602 31.3613 15.4502C29.7563 14.3852 27.4612 14.0252 25.4062 14.3852" stroke="#E8E7ED" stroke-width="1.5" stroke-linecap="round" stroke-linejoin="round"/>
<path opacity="0.4" d="M8.9518 10.74C9.0418 10.725 9.1468 10.725 9.2368 10.74C11.3068 10.665 12.9568 8.97 12.9568 6.87C12.9568 4.725 11.2318 3 9.0868 3C6.9418 3 5.2168 4.74 5.2168 6.87C5.2318 8.97 6.8818 10.665 8.9518 10.74Z" stroke="#E8E7ED" stroke-width="1.5" stroke-linecap="round" stroke-linejoin="round"/>
<path opacity="0.4" d="M10.4962 21.6602C8.44125 22.0052 6.17625 21.6452 4.58625 20.5802C2.47125 19.1702 2.47125 16.8602 4.58625 15.4502C6.19125 14.3852 8.48625 14.0252 10.5412 14.3852" stroke="#E8E7ED" stroke-width="1.5" stroke-linecap="round" stroke-linejoin="round"/>
<path d="M17.9991 21.9451C17.9091 21.9301 17.8041 21.9301 17.7141 21.9451C15.6441 21.8701 13.9941 20.1751 13.9941 18.0751C13.9941 15.9301 15.7191 14.2051 17.8641 14.2051C20.0091 14.2051 21.7341 15.9451 21.7341 18.0751C21.7191 20.1751 20.0691 21.8851 17.9991 21.9451Z" stroke="#E8E7ED" stroke-width="1.5" stroke-linecap="round" stroke-linejoin="round"/>
<path d="M13.6351 26.67C11.5201 28.08 11.5201 30.39 13.6351 31.8C16.0351 33.405 19.9651 33.405 22.3651 31.8C24.4801 30.39 24.4801 28.08 22.3651 26.67C19.9801 25.08 16.0351 25.08 13.6351 26.67Z" stroke="#E8E7ED" stroke-width="1.5" stroke-linecap="round" stroke-linejoin="round"/>
</svg>
