<svg width="34" height="34" viewBox="0 0 34 34" fill="none" xmlns="http://www.w3.org/2000/svg">
<path d="M12.7507 31.1663H21.2507C28.334 31.1663 31.1673 28.333 31.1673 21.2497V12.7497C31.1673 5.66634 28.334 2.83301 21.2507 2.83301H12.7507C5.66732 2.83301 2.83398 5.66634 2.83398 12.7497V21.2497C2.83398 28.333 5.66732 31.1663 12.7507 31.1663Z" stroke="#65E8BF" stroke-width="1.5" stroke-linecap="round" stroke-linejoin="round"/>
<path d="M19.3652 10.6393C18.6568 10.4268 17.8777 10.2852 16.9993 10.2852C13.0893 10.2852 9.91602 13.4585 9.91602 17.3685C9.91602 21.2785 13.0893 24.4518 16.9993 24.4518C20.9093 24.4518 24.0827 21.2785 24.0827 17.3685C24.0827 15.9093 23.6435 14.5635 22.8927 13.4302" stroke="#65E8BF" stroke-width="1.5" stroke-linecap="round" stroke-linejoin="round"/>
<path d="M20.3712 10.8377L18.0195 8.13184" stroke="#65E8BF" stroke-width="1.5" stroke-linecap="round" stroke-linejoin="round"/>
<path d="M20.3714 10.8379L17.623 12.8496" stroke="#65E8BF" stroke-width="1.5" stroke-linecap="round" stroke-linejoin="round"/>
</svg>
